<mxfile host="Electron" agent="Mozilla/5.0 (Windows NT 10.0; Win64; x64) AppleWebKit/537.36 (KHTML, like Gecko) draw.io/25.0.2 Chrome/128.0.6613.186 Electron/32.2.5 Safari/537.36" version="25.0.2">
  <diagram name="Page-1" id="bBteYRtzpX04Bn5RVgAb">
    <mxGraphModel dx="3338" dy="2691" grid="1" gridSize="10" guides="1" tooltips="1" connect="1" arrows="1" fold="1" page="1" pageScale="1" pageWidth="827" pageHeight="1169" math="0" shadow="0">
      <root>
        <mxCell id="0" />
        <mxCell id="1" parent="0" />
        <mxCell id="ZlRKPozC_w9ovPDG2BXd-3" value="" style="edgeStyle=orthogonalEdgeStyle;rounded=0;orthogonalLoop=1;jettySize=auto;html=1;" edge="1" parent="1" source="ZlRKPozC_w9ovPDG2BXd-1" target="ZlRKPozC_w9ovPDG2BXd-2">
          <mxGeometry relative="1" as="geometry" />
        </mxCell>
        <mxCell id="ZlRKPozC_w9ovPDG2BXd-1" value="เริ่ม" style="strokeWidth=2;html=1;shape=mxgraph.flowchart.terminator;whiteSpace=wrap;" vertex="1" parent="1">
          <mxGeometry x="290" y="-890" width="170" height="60" as="geometry" />
        </mxCell>
        <mxCell id="ZlRKPozC_w9ovPDG2BXd-5" value="" style="edgeStyle=orthogonalEdgeStyle;rounded=0;orthogonalLoop=1;jettySize=auto;html=1;" edge="1" parent="1" source="ZlRKPozC_w9ovPDG2BXd-2" target="ZlRKPozC_w9ovPDG2BXd-4">
          <mxGeometry relative="1" as="geometry" />
        </mxCell>
        <mxCell id="ZlRKPozC_w9ovPDG2BXd-2" value="กำหนดตัวแปร int loops" style="whiteSpace=wrap;html=1;strokeWidth=2;" vertex="1" parent="1">
          <mxGeometry x="265" y="-800" width="220" height="60" as="geometry" />
        </mxCell>
        <mxCell id="ZlRKPozC_w9ovPDG2BXd-8" value="" style="edgeStyle=orthogonalEdgeStyle;rounded=0;orthogonalLoop=1;jettySize=auto;html=1;" edge="1" parent="1" source="ZlRKPozC_w9ovPDG2BXd-4" target="ZlRKPozC_w9ovPDG2BXd-6">
          <mxGeometry relative="1" as="geometry" />
        </mxCell>
        <mxCell id="ZlRKPozC_w9ovPDG2BXd-4" value="&lt;div&gt;รับค่า loops&lt;/div&gt;" style="shape=parallelogram;perimeter=parallelogramPerimeter;whiteSpace=wrap;html=1;fixedSize=1;strokeWidth=2;" vertex="1" parent="1">
          <mxGeometry x="257.5" y="-700" width="235" height="60" as="geometry" />
        </mxCell>
        <mxCell id="ZlRKPozC_w9ovPDG2BXd-11" value="" style="edgeStyle=orthogonalEdgeStyle;rounded=0;orthogonalLoop=1;jettySize=auto;html=1;" edge="1" parent="1" source="ZlRKPozC_w9ovPDG2BXd-6" target="ZlRKPozC_w9ovPDG2BXd-10">
          <mxGeometry relative="1" as="geometry" />
        </mxCell>
        <mxCell id="ZlRKPozC_w9ovPDG2BXd-27" value="" style="edgeStyle=orthogonalEdgeStyle;rounded=0;orthogonalLoop=1;jettySize=auto;html=1;" edge="1" parent="1" source="ZlRKPozC_w9ovPDG2BXd-6" target="ZlRKPozC_w9ovPDG2BXd-26">
          <mxGeometry relative="1" as="geometry" />
        </mxCell>
        <mxCell id="ZlRKPozC_w9ovPDG2BXd-6" value="ถ้าเลขใน loops เป็นคี่" style="rhombus;whiteSpace=wrap;html=1;" vertex="1" parent="1">
          <mxGeometry x="240" y="-610.0000000000001" width="270" height="130" as="geometry" />
        </mxCell>
        <mxCell id="ZlRKPozC_w9ovPDG2BXd-13" value="" style="edgeStyle=orthogonalEdgeStyle;rounded=0;orthogonalLoop=1;jettySize=auto;html=1;" edge="1" parent="1" source="ZlRKPozC_w9ovPDG2BXd-10" target="ZlRKPozC_w9ovPDG2BXd-12">
          <mxGeometry relative="1" as="geometry" />
        </mxCell>
        <mxCell id="ZlRKPozC_w9ovPDG2BXd-10" value="&lt;div&gt;i = 0&lt;/div&gt;" style="whiteSpace=wrap;html=1;strokeWidth=2;" vertex="1" parent="1">
          <mxGeometry x="265" y="-450" width="220" height="60" as="geometry" />
        </mxCell>
        <mxCell id="ZlRKPozC_w9ovPDG2BXd-15" value="" style="edgeStyle=orthogonalEdgeStyle;rounded=0;orthogonalLoop=1;jettySize=auto;html=1;" edge="1" parent="1" source="ZlRKPozC_w9ovPDG2BXd-12" target="ZlRKPozC_w9ovPDG2BXd-14">
          <mxGeometry relative="1" as="geometry" />
        </mxCell>
        <mxCell id="ZlRKPozC_w9ovPDG2BXd-39" style="edgeStyle=orthogonalEdgeStyle;rounded=0;orthogonalLoop=1;jettySize=auto;html=1;entryX=0.5;entryY=0;entryDx=0;entryDy=0;" edge="1" parent="1" source="ZlRKPozC_w9ovPDG2BXd-12" target="ZlRKPozC_w9ovPDG2BXd-36">
          <mxGeometry relative="1" as="geometry" />
        </mxCell>
        <mxCell id="ZlRKPozC_w9ovPDG2BXd-12" value="i น้อยกว่า loops" style="rhombus;whiteSpace=wrap;html=1;" vertex="1" parent="1">
          <mxGeometry x="240" y="-360.0000000000001" width="270" height="130" as="geometry" />
        </mxCell>
        <mxCell id="ZlRKPozC_w9ovPDG2BXd-17" value="" style="edgeStyle=orthogonalEdgeStyle;rounded=0;orthogonalLoop=1;jettySize=auto;html=1;" edge="1" parent="1" source="ZlRKPozC_w9ovPDG2BXd-14" target="ZlRKPozC_w9ovPDG2BXd-16">
          <mxGeometry relative="1" as="geometry" />
        </mxCell>
        <mxCell id="ZlRKPozC_w9ovPDG2BXd-14" value="แสดงค่า&lt;br&gt;(ค่าใน i +1 ) Hello World" style="shape=parallelogram;perimeter=parallelogramPerimeter;whiteSpace=wrap;html=1;fixedSize=1;strokeWidth=2;" vertex="1" parent="1">
          <mxGeometry x="257.5" y="-200" width="235" height="60" as="geometry" />
        </mxCell>
        <mxCell id="ZlRKPozC_w9ovPDG2BXd-18" style="edgeStyle=orthogonalEdgeStyle;rounded=0;orthogonalLoop=1;jettySize=auto;html=1;entryX=0;entryY=0.5;entryDx=0;entryDy=0;exitX=0.5;exitY=1;exitDx=0;exitDy=0;" edge="1" parent="1" source="ZlRKPozC_w9ovPDG2BXd-16" target="ZlRKPozC_w9ovPDG2BXd-12">
          <mxGeometry relative="1" as="geometry" />
        </mxCell>
        <mxCell id="ZlRKPozC_w9ovPDG2BXd-16" value="&lt;div&gt;i ++&lt;/div&gt;" style="whiteSpace=wrap;html=1;strokeWidth=2;" vertex="1" parent="1">
          <mxGeometry x="265" y="-90" width="220" height="60" as="geometry" />
        </mxCell>
        <mxCell id="ZlRKPozC_w9ovPDG2BXd-19" value="Y" style="text;html=1;align=center;verticalAlign=middle;whiteSpace=wrap;rounded=0;" vertex="1" parent="1">
          <mxGeometry x="310" y="-240" width="60" height="30" as="geometry" />
        </mxCell>
        <mxCell id="ZlRKPozC_w9ovPDG2BXd-20" value="N" style="text;html=1;align=center;verticalAlign=middle;whiteSpace=wrap;rounded=0;" vertex="1" parent="1">
          <mxGeometry x="485" y="-330" width="60" height="30" as="geometry" />
        </mxCell>
        <mxCell id="ZlRKPozC_w9ovPDG2BXd-21" value="จบ" style="strokeWidth=2;html=1;shape=mxgraph.flowchart.terminator;whiteSpace=wrap;" vertex="1" parent="1">
          <mxGeometry x="457.5" y="210" width="170" height="60" as="geometry" />
        </mxCell>
        <mxCell id="ZlRKPozC_w9ovPDG2BXd-32" value="" style="edgeStyle=orthogonalEdgeStyle;rounded=0;orthogonalLoop=1;jettySize=auto;html=1;" edge="1" parent="1" source="ZlRKPozC_w9ovPDG2BXd-26" target="ZlRKPozC_w9ovPDG2BXd-28">
          <mxGeometry relative="1" as="geometry" />
        </mxCell>
        <mxCell id="ZlRKPozC_w9ovPDG2BXd-54" style="edgeStyle=orthogonalEdgeStyle;rounded=0;orthogonalLoop=1;jettySize=auto;html=1;entryX=0.5;entryY=0;entryDx=0;entryDy=0;" edge="1" parent="1" source="ZlRKPozC_w9ovPDG2BXd-26" target="ZlRKPozC_w9ovPDG2BXd-51">
          <mxGeometry relative="1" as="geometry" />
        </mxCell>
        <mxCell id="ZlRKPozC_w9ovPDG2BXd-26" value="ถ้าเลขใน loops เป็นคู่" style="rhombus;whiteSpace=wrap;html=1;" vertex="1" parent="1">
          <mxGeometry x="610" y="-610.0000000000001" width="270" height="130" as="geometry" />
        </mxCell>
        <mxCell id="ZlRKPozC_w9ovPDG2BXd-33" value="" style="edgeStyle=orthogonalEdgeStyle;rounded=0;orthogonalLoop=1;jettySize=auto;html=1;" edge="1" parent="1" source="ZlRKPozC_w9ovPDG2BXd-28" target="ZlRKPozC_w9ovPDG2BXd-29">
          <mxGeometry relative="1" as="geometry" />
        </mxCell>
        <mxCell id="ZlRKPozC_w9ovPDG2BXd-28" value="&lt;div&gt;i = 0&lt;/div&gt;" style="whiteSpace=wrap;html=1;strokeWidth=2;" vertex="1" parent="1">
          <mxGeometry x="635" y="-435" width="220" height="60" as="geometry" />
        </mxCell>
        <mxCell id="ZlRKPozC_w9ovPDG2BXd-34" value="" style="edgeStyle=orthogonalEdgeStyle;rounded=0;orthogonalLoop=1;jettySize=auto;html=1;" edge="1" parent="1" source="ZlRKPozC_w9ovPDG2BXd-29" target="ZlRKPozC_w9ovPDG2BXd-30">
          <mxGeometry relative="1" as="geometry" />
        </mxCell>
        <mxCell id="ZlRKPozC_w9ovPDG2BXd-52" value="" style="edgeStyle=orthogonalEdgeStyle;rounded=0;orthogonalLoop=1;jettySize=auto;html=1;" edge="1" parent="1" source="ZlRKPozC_w9ovPDG2BXd-29" target="ZlRKPozC_w9ovPDG2BXd-51">
          <mxGeometry relative="1" as="geometry" />
        </mxCell>
        <mxCell id="ZlRKPozC_w9ovPDG2BXd-29" value="i น้อยกว่า loops" style="rhombus;whiteSpace=wrap;html=1;" vertex="1" parent="1">
          <mxGeometry x="610" y="-345.0000000000001" width="270" height="130" as="geometry" />
        </mxCell>
        <mxCell id="ZlRKPozC_w9ovPDG2BXd-35" value="" style="edgeStyle=orthogonalEdgeStyle;rounded=0;orthogonalLoop=1;jettySize=auto;html=1;" edge="1" parent="1" source="ZlRKPozC_w9ovPDG2BXd-30" target="ZlRKPozC_w9ovPDG2BXd-31">
          <mxGeometry relative="1" as="geometry" />
        </mxCell>
        <mxCell id="ZlRKPozC_w9ovPDG2BXd-30" value="แสดงค่า&lt;br&gt;[ค่าใน i +1 ] Hello World" style="shape=parallelogram;perimeter=parallelogramPerimeter;whiteSpace=wrap;html=1;fixedSize=1;strokeWidth=2;" vertex="1" parent="1">
          <mxGeometry x="627.5" y="-185" width="235" height="60" as="geometry" />
        </mxCell>
        <mxCell id="ZlRKPozC_w9ovPDG2BXd-44" value="" style="edgeStyle=orthogonalEdgeStyle;rounded=0;orthogonalLoop=1;jettySize=auto;html=1;" edge="1" parent="1" source="ZlRKPozC_w9ovPDG2BXd-31" target="ZlRKPozC_w9ovPDG2BXd-43">
          <mxGeometry relative="1" as="geometry" />
        </mxCell>
        <mxCell id="ZlRKPozC_w9ovPDG2BXd-31" value="&lt;div&gt;i ++&lt;/div&gt;" style="whiteSpace=wrap;html=1;strokeWidth=2;" vertex="1" parent="1">
          <mxGeometry x="635" y="-75" width="220" height="60" as="geometry" />
        </mxCell>
        <mxCell id="ZlRKPozC_w9ovPDG2BXd-36" value="" style="ellipse;whiteSpace=wrap;html=1;aspect=fixed;" vertex="1" parent="1">
          <mxGeometry x="530" y="9.999999999999773" width="40" height="40" as="geometry" />
        </mxCell>
        <mxCell id="ZlRKPozC_w9ovPDG2BXd-40" value="Y" style="text;html=1;align=center;verticalAlign=middle;whiteSpace=wrap;rounded=0;" vertex="1" parent="1">
          <mxGeometry x="680" y="-220" width="60" height="30" as="geometry" />
        </mxCell>
        <mxCell id="ZlRKPozC_w9ovPDG2BXd-41" value="N" style="text;html=1;align=center;verticalAlign=middle;whiteSpace=wrap;rounded=0;" vertex="1" parent="1">
          <mxGeometry x="840" y="-320" width="60" height="30" as="geometry" />
        </mxCell>
        <mxCell id="ZlRKPozC_w9ovPDG2BXd-45" style="edgeStyle=orthogonalEdgeStyle;rounded=0;orthogonalLoop=1;jettySize=auto;html=1;entryX=1;entryY=0.5;entryDx=0;entryDy=0;" edge="1" parent="1" source="ZlRKPozC_w9ovPDG2BXd-43" target="ZlRKPozC_w9ovPDG2BXd-36">
          <mxGeometry relative="1" as="geometry" />
        </mxCell>
        <mxCell id="ZlRKPozC_w9ovPDG2BXd-43" value="" style="ellipse;whiteSpace=wrap;html=1;aspect=fixed;" vertex="1" parent="1">
          <mxGeometry x="725" y="9.999999999999773" width="40" height="40" as="geometry" />
        </mxCell>
        <mxCell id="ZlRKPozC_w9ovPDG2BXd-49" style="edgeStyle=orthogonalEdgeStyle;rounded=0;orthogonalLoop=1;jettySize=auto;html=1;entryX=1;entryY=0.5;entryDx=0;entryDy=0;" edge="1" parent="1" source="ZlRKPozC_w9ovPDG2BXd-47" target="ZlRKPozC_w9ovPDG2BXd-43">
          <mxGeometry relative="1" as="geometry" />
        </mxCell>
        <mxCell id="ZlRKPozC_w9ovPDG2BXd-47" value="" style="ellipse;whiteSpace=wrap;html=1;aspect=fixed;" vertex="1" parent="1">
          <mxGeometry x="910" y="9.999999999999773" width="40" height="40" as="geometry" />
        </mxCell>
        <mxCell id="ZlRKPozC_w9ovPDG2BXd-53" style="edgeStyle=orthogonalEdgeStyle;rounded=0;orthogonalLoop=1;jettySize=auto;html=1;entryX=0.5;entryY=0;entryDx=0;entryDy=0;" edge="1" parent="1" source="ZlRKPozC_w9ovPDG2BXd-51" target="ZlRKPozC_w9ovPDG2BXd-47">
          <mxGeometry relative="1" as="geometry" />
        </mxCell>
        <mxCell id="ZlRKPozC_w9ovPDG2BXd-51" value="" style="ellipse;whiteSpace=wrap;html=1;aspect=fixed;" vertex="1" parent="1">
          <mxGeometry x="910" y="-300.0000000000002" width="40" height="40" as="geometry" />
        </mxCell>
        <mxCell id="ZlRKPozC_w9ovPDG2BXd-55" value="N" style="text;html=1;align=center;verticalAlign=middle;whiteSpace=wrap;rounded=0;" vertex="1" parent="1">
          <mxGeometry x="485" y="-584" width="60" height="30" as="geometry" />
        </mxCell>
        <mxCell id="ZlRKPozC_w9ovPDG2BXd-56" value="N" style="text;html=1;align=center;verticalAlign=middle;whiteSpace=wrap;rounded=0;" vertex="1" parent="1">
          <mxGeometry x="855" y="-584" width="60" height="30" as="geometry" />
        </mxCell>
        <mxCell id="ZlRKPozC_w9ovPDG2BXd-58" value="Y" style="text;html=1;align=center;verticalAlign=middle;whiteSpace=wrap;rounded=0;" vertex="1" parent="1">
          <mxGeometry x="400" y="-500" width="60" height="30" as="geometry" />
        </mxCell>
        <mxCell id="ZlRKPozC_w9ovPDG2BXd-60" value="Y" style="text;html=1;align=center;verticalAlign=middle;whiteSpace=wrap;rounded=0;" vertex="1" parent="1">
          <mxGeometry x="750" y="-480" width="60" height="30" as="geometry" />
        </mxCell>
        <mxCell id="ZlRKPozC_w9ovPDG2BXd-62" style="edgeStyle=orthogonalEdgeStyle;rounded=0;orthogonalLoop=1;jettySize=auto;html=1;entryX=0.539;entryY=-0.021;entryDx=0;entryDy=0;entryPerimeter=0;" edge="1" parent="1" source="ZlRKPozC_w9ovPDG2BXd-36" target="ZlRKPozC_w9ovPDG2BXd-21">
          <mxGeometry relative="1" as="geometry" />
        </mxCell>
      </root>
    </mxGraphModel>
  </diagram>
</mxfile>
